<svg width="44" height="44" viewBox="0 0 44 44" fill="none" xmlns="http://www.w3.org/2000/svg">
<circle cx="16.5" cy="16.5" r="16.5" fill="white"/>
<path d="M18.1299 15.5137C18.6481 15.4629 19.172 15.5526 19.6455 15.7754L40.8145 25.6543C40.8933 25.6911 40.9672 25.7355 41.0371 25.7842C42.0105 26.3343 42.5487 27.3781 42.4961 28.4561C42.4371 29.6644 41.639 30.6871 40.5127 31.0625H40.5117L33.4209 33.4219L31.0615 40.5137L31.0605 40.5146C30.6851 41.6408 29.6634 42.439 28.4551 42.498C28.4307 42.4992 28.4062 42.5 28.3818 42.5H28.2969C27.1442 42.4999 26.1424 41.8215 25.6641 40.8369C25.6607 40.8299 25.6566 40.8225 25.6533 40.8154L15.7793 19.6533C15.2501 18.5357 15.4908 17.2213 16.3555 16.3564L16.3564 16.3574C16.7774 15.9331 17.3185 15.6482 17.9072 15.5439L18.1299 15.5137Z" fill="white" stroke="#18191D" stroke-width="3" stroke-linejoin="round"/>
</svg>
